<?xml version="1.0" encoding="iso-8859-1"?>
<!-- Generator: Adobe Illustrator 19.0.0, SVG Export Plug-In . SVG Version: 6.00 Build 0)  -->
<svg version="1.1" id="Layer_1" xmlns="http://www.w3.org/2000/svg" xmlns:xlink="http://www.w3.org/1999/xlink" x="0px" y="0px"
	 viewBox="0 0 512 512" style="enable-background:new 0 0 512 512;" xml:space="preserve">
<path d="M512,128v256c0,8.48-6.88,15.36-15.36,15.36H15.36C6.88,399.36,0,392.48,0,384V128c0-8.48,6.88-15.36,15.36-15.36h481.28
	C505.12,112.64,512,119.6,512,128z"/>
<rect x="40.96" y="128" width="409.6" height="256"/>
<g>
	<path style="fill:#999999;" d="M25.6,225.52v61.44c0,2.8-2.32,5.12-5.12,5.12l0,0c-2.8,0-5.12-2.32-5.12-5.12v-61.44
		c0-2.8,2.32-5.12,5.12-5.12l0,0C23.28,220.4,25.6,222.72,25.6,225.52z"/>
	<path style="fill:#999999;" d="M481.28,225.28v61.44c0,2.8-2.32,5.12-5.12,5.12l0,0c-2.8,0-5.12-2.32-5.12-5.12v-61.44
		c0-2.8,2.32-5.12,5.12-5.12l0,0C478.96,220.16,481.28,222.48,481.28,225.28z"/>
</g>
<circle style="fill:#FFFFFF;" cx="138.48" cy="250.96" r="17.12"/>
<g>
	<path style="fill:#FF6600;" d="M194.8,259.36v-16.88l-17.2-1.68c-0.96-3.6-2.48-7.04-4.4-10.16l11.04-13.52l-11.92-11.92
		l-14.08,11.52c-2.96-1.52-6.08-2.72-9.44-3.52l-1.84-18.56h-8.48h-0.08h-8.48l-1.84,18.56c-3.36,0.72-6.48,1.92-9.44,3.52
		l-14.08-11.52l-11.92,11.92l11.04,13.52c-1.92,3.12-3.44,6.48-4.4,10.16l-17.2,1.68v16.88l17.2,1.76c0.96,3.6,2.48,7.04,4.4,10.08
		l-11.12,13.52l11.92,11.92l14.08-11.52c2.96,1.52,6.08,2.72,9.44,3.52l1.84,18.56h8.48h0.08h8.48l1.84-18.56
		c3.36-0.72,6.48-1.92,9.44-3.52l14.08,11.52l11.92-11.92l-11.12-13.52c1.92-3.12,3.44-6.48,4.4-10.08L194.8,259.36z M138.48,276.32
		c-14,0-25.36-11.36-25.36-25.36s11.36-25.36,25.36-25.36s25.36,11.36,25.36,25.36C163.92,264.96,152.56,276.32,138.48,276.32z"/>
	<rect x="235.76" y="195.6" style="fill:#FF6600;" width="174.08" height="16.64"/>
</g>
<g>
	<rect x="235.76" y="235.52" style="fill:#999999;" width="174.08" height="10.24"/>
	<rect x="235.76" y="256" style="fill:#999999;" width="174.08" height="10.24"/>
	<rect x="235.76" y="276.48" style="fill:#999999;" width="174.08" height="10.24"/>
	<rect x="235.76" y="296.96" style="fill:#999999;" width="174.08" height="10.24"/>
</g>
<path style="opacity:0.2;fill:#FFFFFF;enable-background:new    ;" d="M358.96,112.64H15.6c-8.48,0-15.36,6.88-15.36,15.36v166.56
	L358.96,112.64z"/>
<g>
</g>
<g>
</g>
<g>
</g>
<g>
</g>
<g>
</g>
<g>
</g>
<g>
</g>
<g>
</g>
<g>
</g>
<g>
</g>
<g>
</g>
<g>
</g>
<g>
</g>
<g>
</g>
<g>
</g>
</svg>
